<?xml version="1.0" encoding="UTF-8"?>
<svg id="Layer_1" data-name="Layer 1" xmlns="http://www.w3.org/2000/svg" viewBox="0 0 1132.94 1080.86">
  <defs>
    <style>
      .cls-1 {
        fill: #3c3e4e;
        stroke: #3c3e4e;
        stroke-miterlimit: 10;
      }
    </style>
  </defs>
  <line class="cls-1" x1=".24" y1="129.64" x2="108.73" y2="68.69"/>
  <line class="cls-1" x1="216" y1="132.08" x2="108.73" y2="68.69"/>
  <line class="cls-1" x1="106.29" y1="194.24" x2="216" y2="132.08"/>
  <line class="cls-1" x1="108.73" y1="319.8" x2="219.66" y2="257.63"/>
  <line class="cls-1" x1="216" y1="132.08" x2="219.66" y2="257.63"/>
  <line class="cls-1" x1="106.29" y1="194.24" x2="108.73" y2="319.8"/>
  <line class="cls-1" x1="219.66" y1="257.63" x2="325.71" y2="318.58"/>
  <line class="cls-1" x1="216" y1="132.08" x2="326.93" y2="194.85"/>
  <line class="cls-1" x1="432.98" y1="132.08" x2="326.93" y2="194.85"/>
  <line class="cls-1" x1="443.95" y1="1.65" x2="216" y2="132.08"/>
  <line class="cls-1" x1="876.68" y1="383.18" x2="329.97" y2="66.86"/>
  <line class="cls-1" x1="432.98" y1="132.08" x2="656.05" y2="4.09"/>
  <line class="cls-1" x1="985.17" y1="194.85" x2="656.05" y2="4.09"/>
  <line class="cls-1" x1="880.34" y1=".43" x2="660.92" y2="132.08"/>
  <line class="cls-1" x1="546.63" y1="66.86" x2="549.14" y2="562.17"/>
  <line class="cls-1" x1="217.83" y1="512.39" x2="987.6" y2="68.08"/>
  <line class="cls-1" x1="1094.87" y1="130.86" x2="987.6" y2="68.08"/>
  <line class="cls-1" x1="1096.09" y1="257.02" x2="1094.87" y2="130.86"/>
  <line class="cls-1" x1="1132.7" y1="277.13" x2="1096.09" y2="257.02"/>
  <line class="cls-1" x1="876.68" y1="383.18" x2="1096.09" y2="257.02"/>
  <line class="cls-1" x1="770.63" y1="320.1" x2="877.9" y2="257.02"/>
  <line class="cls-1" x1="876.8" y1="132.04" x2="877.9" y2="257.02"/>
  <line class="cls-1" x1="1095.48" y1="383.54" x2="877.9" y2="257.02"/>
  <line class="cls-1" x1="660.92" y1="132.08" x2="660.26" y2="257.02"/>
  <line class="cls-1" x1="546.64" y1="66.86" x2="660.92" y2="132.08"/>
  <line class="cls-1" x1="432.98" y1="132.08" x2="435.41" y2="257.02"/>
  <line class="cls-1" x1="326.93" y1="194.85" x2="329.97" y2="447.66"/>
  <line class="cls-1" x1="768.82" y1="569.77" x2="986.69" y2="446.57"/>
  <line class="cls-1" x1="985.17" y1="194.85" x2="986.69" y2="446.57"/>
  <line class="cls-1" x1="767.03" y1="68.41" x2="769.73" y2="826.19"/>
  <line class="cls-1" x1="550" y1="450.7" x2="660.59" y2="385.93"/>
  <line class="cls-1" x1="325.71" y1="318.58" x2="442.73" y2="385.93"/>
  <line class="cls-1" x1="435.41" y1="257.02" x2="325.71" y2="318.58"/>
  <line class="cls-1" x1="545.57" y1="321.32" x2="435.41" y2="257.02"/>
  <line class="cls-1" x1="442.73" y1="385.93" x2="660.59" y2="511.17"/>
  <line class="cls-1" x1="768.83" y1="450.7" x2="660.59" y2="511.17"/>
  <line class="cls-1" x1="660.59" y1="385.93" x2="985.93" y2="574.56"/>
  <line class="cls-1" x1="986.69" y1="446.57" x2="1095.48" y2="513.61"/>
  <line class="cls-1" x1="1095.48" y1="383.54" x2="1095.48" y2="636.73"/>
  <line class="cls-1" x1="985.93" y1="574.56" x2="1095.48" y2="513.61"/>
  <line class="cls-1" x1="1132.7" y1="534.33" x2="1095.48" y2="513.61"/>
  <line class="cls-1" x1="985.93" y1="574.56" x2="986.38" y2="700.11"/>
  <line class="cls-1" x1="768.83" y1="952.44" x2="1094.87" y2="763.5"/>
  <line class="cls-1" x1="1095.48" y1="1015.82" x2="1094.87" y2="763.5"/>
  <line class="cls-1" x1="1130.22" y1="992.66" x2="986.69" y2="1080.43"/>
  <line class="cls-1" x1="876.68" y1="383.18" x2="877.35" y2="1017.04"/>
  <line class="cls-1" x1="986.69" y1="1080.43" x2="877.35" y2="1017.04"/>
  <line class="cls-1" x1="877.35" y1="889.55" x2="986.69" y2="953.66"/>
  <line class="cls-1" x1="1095.18" y1="889.66" x2="986.69" y2="953.66"/>
  <line class="cls-1" x1="985.93" y1="825.97" x2="1095.18" y2="889.66"/>
  <line class="cls-1" x1="877.01" y1="762.28" x2="986.38" y2="700.11"/>
  <line class="cls-1" x1="877.35" y1="636.73" x2="986.38" y2="700.11"/>
  <line class="cls-1" x1="768.38" y1="697.01" x2="877.35" y2="636.73"/>
  <line class="cls-1" x1="986.38" y1="700.11" x2="1095.48" y2="636.73"/>
  <line class="cls-1" x1="1094.87" y1="763.5" x2="986.38" y2="700.11"/>
  <line class="cls-1" x1="660.53" y1="620.14" x2="660.66" y2="731.2"/>
  <line class="cls-1" x1="769.73" y1="826.19" x2="661.04" y2="883.26"/>
  <line class="cls-1" x1="549.14" y1="562.17" x2="877.01" y2="762.28"/>
  <line class="cls-1" x1="660.59" y1="511.17" x2="660.59" y2="630.19"/>
  <line class="cls-1" x1="329.97" y1="447.66" x2="434.2" y2="511.17"/>
  <line class="cls-1" x1="551.66" y1="560.72" x2="432.67" y2="634.19"/>
  <line class="cls-1" x1="434.2" y1="511.17" x2="432.67" y2="634.19"/>
  <line class="cls-1" x1="550" y1="450.7" x2="434.2" y2="511.17"/>
  <line class="cls-1" x1="769.73" y1="826.19" x2="877.35" y2="889.55"/>
  <line class="cls-1" x1="985.93" y1="825.97" x2="986.38" y2="700.11"/>
  <line class="cls-1" x1="660.59" y1="630.19" x2="768.82" y2="569.77"/>
  <line class="cls-1" x1="328.54" y1="570.68" x2="329.97" y2="447.66"/>
  <line class="cls-1" x1="328.45" y1="570.68" x2="432.67" y2="634.19"/>
</svg>